
        <svg xmlns="http://www.w3.org/2000/svg" xmlns:xlink="http://www.w3.org/1999/xlink" version="1.1" width="3187.5" height="971.6142771609425" viewBox="0 0 3187.5 971.6142771609425">
			
			<g transform="scale(9.375) translate(10, 10)">
				<defs id="SvgjsDefs1620"/><g id="SvgjsG1621" featureKey="symbolFeature-0" transform="matrix(1.463036298751831,0,0,1.463036298751831,-15.837367309368123,-24.017203892039014)" fill="#fff"><g xmlns="http://www.w3.org/2000/svg"><polygon points="15.825,23.585 10.825,23.585 10.825,73.584 43.825,73.584 15.825,68.579  "/></g><polygon xmlns="http://www.w3.org/2000/svg" points="23.826,63.574 23.826,21.944 17.825,20.943 17.825,66.885 40.79,71.384 "/><polygon xmlns="http://www.w3.org/2000/svg" points="25.652,62.399 44,70.747 44,24.76 25.652,16.416 "/><g xmlns="http://www.w3.org/2000/svg"><polygon points="74.176,23.585 79.176,23.585 79.176,73.584 46.175,73.584 74.176,68.579  "/></g><polygon xmlns="http://www.w3.org/2000/svg" points="66.174,63.574 66.174,21.944 72.176,20.943 72.176,66.885 49.21,71.384 "/><polygon xmlns="http://www.w3.org/2000/svg" points="64.349,62.399 46,70.747 46,24.76 64.349,16.416 "/></g><g id="SvgjsG1622" featureKey="nameFeature-0" transform="matrix(0.9052324295043945,0,0,0.9052324295043945,118.5855747399318,19.821506884793024)" fill="#fff"><path d="M1.5625 7.93 l18.887 17.988 l0 -17.402 l6.3086 0 l0 32.07 l-18.887 -18.008 l0 17.422 l-6.3086 0 l0 -32.07 z M45.0003125 8.359000000000002 c4.375 0 8.125 1.5625 11.25 4.6875 s4.6875 6.875 4.6875 11.25 s-1.5625 8.125 -4.6875 11.23 s-6.875 4.668 -11.25 4.668 s-8.125 -1.5625 -11.23 -4.668 s-4.668 -6.8555 -4.668 -11.23 s1.5625 -8.125 4.668 -11.25 s6.8555 -4.6875 11.23 -4.6875 z M45.0003125 14.707 c-2.6367 0 -4.8828 0.9375 -6.7383 2.8125 s-2.793 4.1211 -2.793 6.7383 c0 2.6367 0.9375 4.8828 2.793 6.7383 s4.1016 2.793 6.7383 2.793 c2.6172 0 4.8633 -0.9375 6.7383 -2.793 s2.8125 -4.1016 2.8125 -6.7383 c0 -2.6172 -0.9375 -4.8633 -2.8125 -6.7383 s-4.1211 -2.8125 -6.7383 -2.8125 z M70.7226875 8.515999999999998 l6.3086 0 l7.8711 0 l0 6.2891 l-7.8711 0 l0 25.195 l-6.3086 0 l0 -25.195 l-7.8711 0 l0 -6.2891 l7.8711 0 z M87.63671875 8.515999999999998 l18.887 0 l0 6.2891 l-12.578 0 l0 6.3086 l9.4336 0 l0 6.2891 l-9.4336 0 l0 6.2891 l12.578 0 l0 6.3086 l-12.578 0 l-6.3086 0 l0 -31.484 z M117.304725 8.613 l-0.019531 0 c4.2188 0 7.7539 3.4961 7.832 7.6758 c0 0.83984 -0.29297 1.8164 -0.54688 2.5977 c3.5938 1.5625 6.8164 5.1172 6.8164 10.098 c0 3.0078 -1.0742 5.5859 -3.2227 7.7344 s-4.7266 3.2227 -7.7344 3.2227 l-10.957 0 l0 -31.328 l7.832 0 z M115.722625 18.633 l1.5625 0 c1.0547 0 1.8945 -0.80078 1.8945 -1.8359 c0 -1.0547 -0.83984 -1.9336 -1.8945 -1.9336 l-1.5625 0 l0 3.7695 z M120.410625 33.6719 c2.5781 0 4.707 -2.1094 4.707 -4.668 c0 -1.3086 -0.46875 -2.4219 -1.3867 -3.3398 s-2.0313 -0.97656 -3.3203 -0.97656 l-4.6875 0 l0 8.9844 l4.6875 0 z M148.8675 8.359000000000002 c4.375 0 8.125 1.5625 11.25 4.6875 s4.6875 6.875 4.6875 11.25 s-1.5625 8.125 -4.6875 11.23 s-6.875 4.668 -11.25 4.668 s-8.125 -1.5625 -11.23 -4.668 s-4.668 -6.8555 -4.668 -11.23 s1.5625 -8.125 4.668 -11.25 s6.8555 -4.6875 11.23 -4.6875 z M148.8675 14.707 c-2.6367 0 -4.8828 0.9375 -6.7383 2.8125 s-2.793 4.1211 -2.793 6.7383 c0 2.6367 0.9375 4.8828 2.793 6.7383 s4.1016 2.793 6.7383 2.793 c2.6172 0 4.8633 -0.9375 6.7383 -2.793 s2.8125 -4.1016 2.8125 -6.7383 c0 -2.6172 -0.9375 -4.8633 -2.8125 -6.7383 s-4.1211 -2.8125 -6.7383 -2.8125 z M182.226875 8.359000000000002 c4.375 0 8.125 1.5625 11.25 4.6875 s4.6875 6.875 4.6875 11.25 s-1.5625 8.125 -4.6875 11.23 s-6.875 4.668 -11.25 4.668 s-8.125 -1.5625 -11.23 -4.668 s-4.668 -6.8555 -4.668 -11.23 s1.5625 -8.125 4.668 -11.25 s6.8555 -4.6875 11.23 -4.6875 z M182.226875 14.707 c-2.6367 0 -4.8828 0.9375 -6.7383 2.8125 s-2.793 4.1211 -2.793 6.7383 c0 2.6367 0.9375 4.8828 2.793 6.7383 s4.1016 2.793 6.7383 2.793 c2.6172 0 4.8633 -0.9375 6.7383 -2.793 s2.8125 -4.1016 2.8125 -6.7383 c0 -2.6172 -0.9375 -4.8633 -2.8125 -6.7383 s-4.1211 -2.8125 -6.7383 -2.8125 z M200.46875 8.515999999999998 l6.3086 0 l0 11.953 l6.9336 -11.953 l7.2852 0 l-9.2969 15.996 l10.801 15.488 l-7.6758 0 l-8.0469 -11.563 l0 11.563 l-6.3086 0 l0 -31.484 z"/></g>
			</g>
		</svg>
	